<?xml version="1.0" encoding="utf-8"?>
<!-- Generator: Adobe Illustrator 27.3.1, SVG Export Plug-In . SVG Version: 6.00 Build 0)  -->
<svg version="1.1" id="Layer_1" xmlns="http://www.w3.org/2000/svg" xmlns:xlink="http://www.w3.org/1999/xlink" x="0px" y="0px"
	 viewBox="0 0 2247.8 1482.4" style="enable-background:new 0 0 2247.8 1482.4;" xml:space="preserve">
<style type="text/css">
	.st0{fill:#FFFFFF;}
</style>
<g>
	<path class="st0" d="M2237.8,421.1C2132.5-93.3,1133.7-125.9,490,266v43.3C1133-21.4,2045.2-19.3,2128.3,454.5
		c27.8,156.8-60.5,320.1-218.2,414.1v122.9C2099.8,922,2294.4,696.8,2237.8,421.1 M1067.7,1321.4c-444.1,41-907-23.6-971.9-370.6
		C64,779.7,142.1,598.2,245.5,485.4v-60.3C59.2,588.5-41.8,795.3,16.5,1039.4c74.3,313.3,471.5,490.7,1077.9,431.8
		c240-23.3,554-100.6,772.5-220.5v-170.3C1668.6,1198.5,1340.8,1296.2,1067.7,1321.4"/>
	<path class="st0" d="M1830.9,346.2h-116.4v518.6c0,60.8,29.4,113.7,116.4,122.1V346.2z M444.2,535.6H327.5l-0.1,338.8
		c0,61,29.5,113.8,116.8,122.1V535.6z M327.5,472.4h116.3V362H327.5V472.4z M1141.6,991.2c-94.2,0-134-65.6-134-130.2V411.1h115.3
		v124.4h86.9v93.3h-86.9v225.1c0,26.4,12.5,41,40,41h47v96.3L1141.6,991.2z M1447.9,623.3c-39.5,0-69.8,20.4-82.7,47.8
		c-7.5,16.5-10.3,29.4-11,49.6h177.8C1529.7,671.1,1507.2,623.3,1447.9,623.3 M1354.1,799.5c0,59,36.9,102.5,102.2,102.5
		c51.2,0,76.5-14.3,106.1-43.6l71.4,68c-45.7,45.2-93.7,72.6-178.2,72.6c-110.5,0-216.3-60.2-216.3-236
		c0-150.3,92.5-235.3,213.8-235.3c123.3,0,194.1,99.4,194.1,230v41.6L1354.1,799.5 M757.7,628.8c33.9,0,48,16.7,48,43.9v319.2h115.4
		V672c0-64.8-34.5-136.2-136-136.2l-238.4-0.1v456.3h115.4v-363H757.7z"/>
</g>
</svg>
