<?xml version="1.0" encoding="utf-8"?>
<!-- Generator: Adobe Illustrator 27.3.1, SVG Export Plug-In . SVG Version: 6.00 Build 0)  -->
<svg version="1.1" id="Layer_1" xmlns="http://www.w3.org/2000/svg" xmlns:xlink="http://www.w3.org/1999/xlink" x="0px" y="0px"
	 viewBox="0 0 2279.4 994.8" style="enable-background:new 0 0 2279.4 994.8;" xml:space="preserve">
<style type="text/css">
	.st0{fill-rule:evenodd;clip-rule:evenodd;fill:#FFFFFF;}
</style>
<path class="st0" d="M2229.3,156.7c27.7,0,50.1,22.5,50.1,50.2v604h-100.2V256.9h-41.1V156.7H2229.3z M2084.9,711.8h30.1v100.3
	h-231.8c-27.7,0-50.1-22.4-50.1-50.1v-218c0-27.7,22.4-50.1,50.1-50.2h101.5v-81.7h-150.3V311.9h200.5c27.6,0,50,22.5,50,50.1
	c0,0,0,0,0,0L2084.9,711.8L2084.9,711.8L2084.9,711.8z M1933.4,711.8h51.4V594.2h-51.4V711.8z M1700.9,155.8
	c-34.5,0-62.5,28-62.5,62.6c0,34.5,28,62.4,62.5,62.4c0,0,0,0,0.1,0c34.4,0.1,62.4-27.8,62.5-62.3c0,0,0-0.1,0-0.1
	C1763.4,183.8,1735.4,155.8,1700.9,155.8z M1711.2,310.1H1621v100.3h40.1v400.5h100.3V360.2C1761.3,332.6,1738.9,310.1,1711.2,310.1
	C1711.2,310.1,1711.2,310.1,1711.2,310.1L1711.2,310.1z M1560.9,568.7l4-38.8l-29-3.1c1.3-19.6,1.3-39.4,0-59l29-3.1l-4-38.7
	l-28.9,3.1c-2.9-19.5-7-38.9-12.3-57.9l27.7-9l-12.1-37.1l-27.6,9c-6.9-18.5-15-36.6-24.2-54l25.3-14.6l-19.5-33.6l-25.3,14.5
	c-10.5-16.7-22.1-32.6-34.7-47.8l21.7-19.6l-26.1-28.9l-21.7,19.5c-13.8-14.1-28.5-27.3-44-39.5l17.2-23.7l-31.5-22.9l-17.1,23.6
	c-16.5-10.9-33.6-20.8-51.2-29.6l11.8-26.5L1252.7,35l-11.8,26.7c-18.3-7.3-37.1-13.5-56.2-18.5l6-28.3l-38.1-8.1l-6.1,28.4
	c-19.4-3.2-39.1-5.2-58.7-6.2V0h-39v994.8h39v-29.2c19.7-0.8,39.4-2.9,58.8-6.2l6,28.5l38.2-8.1l-6-28.5
	c19.1-4.9,37.9-11.1,56.2-18.4l11.8,26.7l35.7-15.9l-11.9-26.7c17.7-8.6,34.9-18.5,51.2-29.5l17,23.6l31.5-22.9l-17.1-23.6
	c15.4-12.2,30.1-25.4,43.9-39.4l21.8,19.5l26.1-29l-21.7-19.4c12.6-15.2,24.1-31.2,34.6-47.9l25.3,14.6l19.5-33.7l-25.2-14.5
	c9.2-17.5,17.2-35.6,24.1-54.1l27.6,9.1l12-37.2l-27.7-9.1c5.3-18.7,9.5-38.1,12.3-57.7L1560.9,568.7L1560.9,568.7z M188.3,113.1
	H66.2v100.3h72V643L0,773.1L68.8,846l153.9-144.7c10-9.5,15.8-22.7,15.8-36.5V163.2c0-27.6-22.4-50.1-50-50.1
	C188.4,113.1,188.3,113.1,188.3,113.1L188.3,113.1z M561.7,361.1l0.7,400.1c-0.1,13.3-5.3,26-14.7,35.5
	c-9.4,9.4-22.1,14.7-35.4,14.8H346.6c-27.7,0-50.1-22.5-50.1-50.2c0,0,0,0,0,0v-400c-0.1-27.6,22.2-50,49.9-50.1c0.1,0,0.2,0,0.2,0
	h165C539.2,311,561.7,333.4,561.7,361.1C561.7,361.1,561.7,361.1,561.7,361.1L561.7,361.1z M462.1,711.1l-0.5-299.7h-64.8v299.7
	H462.1L462.1,711.1z M905.8,308.3v100.2H870v533.1c0,27.7-22.4,50.2-50.1,50.2h-201V891.6h150.9v-82.7H668.2
	c-27.6,0-50.1-22.4-50.1-50c0,0,0-0.1,0-0.1V358.4c0-27.6,22.3-50.1,50-50.1c0.1,0,0.1,0,0.2,0H905.8z M718.3,708.7h51.5V408.6
	h-51.5V708.7L718.3,708.7z"/>
</svg>
