<?xml version="1.0" encoding="utf-8"?>
<!-- Generator: Adobe Illustrator 27.3.1, SVG Export Plug-In . SVG Version: 6.00 Build 0)  -->
<svg version="1.1" id="Layer_1" xmlns="http://www.w3.org/2000/svg" xmlns:xlink="http://www.w3.org/1999/xlink" x="0px" y="0px"
	 viewBox="0 0 2815.6 481.6" style="enable-background:new 0 0 2815.6 481.6;" xml:space="preserve">
<style type="text/css">
	.st0{fill:#FFFFFF;}
	.st1{fill:#00FF15;}
</style>
<g>
	<path class="st0" d="M450.3,313.4c-40.9,120.4-172.2,185-293.2,144.2C36.2,416.9-28.7,286.2,12.3,165.7
		c33.3-98,126.4-159,225.1-156.4l-31.6,37.2C147.2,57.1,96.7,97,76.8,155.4c-29.6,87,20,182.3,110.7,212.9s188.2-15.2,217.8-102.1
		c19.8-58.3,4.1-120.3-35.7-164.1l-2.4-48.9C447,110.9,483.5,215.5,450.3,313.4z M289.3,250.2c-21.9,21.3-48.8,19.4-66.3,13.5
		s-40-20.6-44.4-50.8c-4.4-30.2,15.4-54.7,15.4-54.7l43-53.3l25.1-30.4L283.6,48c0,0,9.9-13.2,12.7-15.9c0.6-0.6,1.1-0.9,1.7-1.2
		l0.4-0.2h0.1c1.2-0.5,2.5-0.6,3.8-0.2s2.3,1.3,2.9,2.4l0.1,0.2l0.1,0.2c0.3,0.6,0.6,1.2,0.7,2c0.6,3.9,0.4,20.3,0.4,20.3l0.9,34
		l1.4,39.4l1.7,68.3C310.5,197.4,311.2,228.9,289.3,250.2L289.3,250.2z"/>
	<path class="st0" d="M1083.6,247.2c0-7-1.2-12.7-3.6-17.1c-2.3-4.4-5.6-7.8-9.7-10.3s-9.2-4.2-15.2-5c-6-0.9-12.7-1.3-20-1.3
		c-15.9,0-32.7,3.1-50.6,9.2c-4.1-7.6-7.2-14.8-9.3-21.5c-2-6.7-3.1-14.7-3.1-24.1c12.9-4.4,25.8-7.6,38.8-9.6s25-3.1,36.1-3.1
		c30.5,0,54.4,7.3,71.6,22c17.2,14.6,25.8,38,25.8,70.2V388c-10.3,3.2-22.8,6.3-37.5,9.2s-31.3,4.4-49.8,4.4c-15,0-28.7-1.3-41.2-4
		c-12.5-2.6-23.2-7-32.1-13.2c-9-6.1-15.9-14-20.7-23.7c-4.9-9.7-7.3-21.5-7.3-35.5s3-25.8,9-35.3s13.8-17.1,23.3-22.8
		c9.5-5.7,20.2-9.8,31.9-12.3c11.8-2.5,23.5-3.7,35.2-3.7c8.5,0,17.9,0.5,28.2,1.3L1083.6,247.2z M1083.6,292.4
		c-3.8-0.6-7.6-1.2-11.5-1.5c-3.7-0.4-7.3-0.6-11-0.7c-14.4,0-25.8,2.6-34.1,7.7c-8.4,5.1-12.5,13.4-12.5,24.8
		c0,7.6,1.6,13.4,4.8,17.6c3.2,4.1,7.1,7.1,11.7,9c4.5,1.9,9.4,3.1,14.5,3.5s9.6,0.7,13.4,0.7c4.4,0,8.8-0.4,13.2-1.1
		c4.4-0.7,8.2-1.4,11.5-2V292.4z M1186.1,216.9h-28.6l-2.2-8.8l82.4-104.9h10.1v66.2h53.3c0.8,4.4,1.4,8.3,1.8,11.8
		c0.3,3.5,0.4,7.2,0.4,11c0,4.1-0.1,8.1-0.4,11.9c-0.3,3.8-0.9,8-1.8,12.7h-53.3V306c0,9,0.7,16.4,2.2,21.9s3.6,9.9,6.4,13.2
		c2.8,3.2,6.3,5.4,10.3,6.6c4.1,1.2,9,1.8,14.5,1.8c4.4,0,8.8-0.4,13-1.1c4.3-0.7,8-1.4,11.2-2c2,5.6,3.5,11.3,4.4,17.4
		c0.9,6,1.3,11.3,1.3,16c0,3.2-0.1,5.9-0.2,8.1s-0.4,4.3-0.7,6.4c-13.5,3.2-27.5,4.8-41.8,4.8c-26.8,0-47.2-6.2-61.2-18.7
		s-21.2-32.7-21.2-60.8L1186.1,216.9z M1351.4,216.9h-28.7l-2.2-8.8l82.4-104.9h10.1v66.2h53.3c0.9,4.4,1.5,8.3,1.8,11.8
		s0.5,7.2,0.5,11c0,4.1-0.2,8.1-0.5,11.9c-0.3,3.8-0.9,8-1.8,12.7H1413V306c0,9,0.7,16.4,2.2,21.9c1.5,5.6,3.6,9.9,6.4,13.2
		c2.8,3.2,6.2,5.4,10.3,6.6c4.1,1.2,8.9,1.8,14.5,1.8c4.4,0,8.7-0.4,13-1.1s8-1.4,11.2-2c2.1,5.6,3.5,11.3,4.4,17.4
		c0.9,6,1.3,11.3,1.3,16c0,3.2-0.1,5.9-0.2,8.1c-0.2,2.2-0.4,4.3-0.7,6.4c-13.5,3.2-27.5,4.8-41.9,4.8c-26.7,0-47.1-6.2-61.2-18.7
		c-14.1-12.4-21.1-32.7-21.1-60.8V216.9H1351.4z M1551.3,302.1c1.2,17.5,7.3,30.3,18.5,38.2c11.2,7.9,25.9,11.8,44.1,11.8
		c10,0,20.2-1,30.6-2.9s20.3-4.6,29.7-8.1c3.2,5.8,6,12.8,8.3,21c2.4,8.2,3.7,17,4,26.3c-22.9,8.8-48.7,13.2-77.5,13.2
		c-21.1,0-39.3-3-54.4-8.8s-27.5-14-37-24.3c-9.5-10.4-16.6-22.7-21.1-37.1c-4.6-14.4-6.8-30-6.8-47c0-16.6,2.3-32.3,7-46.9
		c4.7-14.6,11.7-27.3,20.9-38.2c9.3-10.8,20.7-19.4,34.4-25.7c13.7-6.3,29.6-9.4,47.8-9.4c15.9,0,30,2.8,42.3,8.3
		c12.3,5.6,22.8,13.2,31.5,22.8s15.2,21.2,19.6,34.5s6.6,27.6,6.6,42.8c0,5.6-0.2,11-0.6,16.4c-0.5,5.4-1,9.7-1.5,13L1551.3,302.1z
		 M1640.7,258.6c-0.6-14-4.5-25.4-11.7-34s-17.2-13-30.2-13c-14.7,0-25.8,4.1-33.5,12.3c-7.6,8.2-12.2,19.7-13.7,34.7H1640.7z
		 M1723.6,169.6c4.4-0.9,8.6-1.5,12.6-2c3.9-0.5,8.3-0.7,13-0.7c4.4,0,8.7,0.3,13,0.9c4.3,0.6,8.4,1.3,12.6,2.2
		c0.9,1.4,1.7,3.6,2.4,6.3c0.7,2.8,1.4,5.7,2,8.8s1.1,6.1,1.5,9.2c0.4,3.1,0.8,5.6,1.1,7.7c6.5-9,14.4-17.2,23.8-24.3
		c9.4-7.2,21.2-10.8,35.2-10.8c3,0,6.3,0.1,10.1,0.5c3.8,0.3,6.6,0.7,8.4,1.3c0.6,2.9,1,6.3,1.3,10.1s0.5,7.7,0.5,11.8
		c0,5-0.2,10.4-0.7,16.2s-1.3,11.4-2.4,16.7c-3.2-0.6-6.8-0.9-10.8-0.9h-7.3c-5,0-10.6,0.5-16.8,1.5c-6.2,1-12,3.7-17.6,8.1
		c-5.6,4.4-10.2,11-13.9,19.7c-3.7,8.8-5.5,21-5.5,36.9v107.9c-5.3,0.8-10.6,1.4-15.8,1.7c-5.3,0.3-10.5,0.5-15.4,0.5
		c-5,0-10.1-0.1-15.2-0.5c-5.1-0.3-10.5-0.9-16.1-1.7L1723.6,169.6L1723.6,169.6z M1890.4,169.6c4.1-0.9,8.2-1.5,12.3-2
		c4.1-0.5,8.7-0.7,13.7-0.7s9.4,0.2,13.2,0.7c3.8,0.4,7.8,1.1,11.9,2c0.9,1.5,1.7,3.6,2.4,6.4s1.4,5.7,2,8.8s1.1,6.1,1.5,9
		c0.5,2.9,0.8,5.4,1.1,7.5c2.3-4.4,5.4-8.8,9.3-13.2c3.8-4.4,8.3-8.3,13.6-11.8c5.3-3.5,11.2-6.4,17.8-8.6c6.6-2.2,14-3.3,22.2-3.3
		c35.5,0,58.3,13.5,68.3,40.4c5.9-10.8,14.2-20.2,24.9-28.3c10.7-8,24.3-12.1,40.8-12.1c25.8,0,44.8,7.1,57,21.3
		s18.3,36.3,18.3,66.5v144.3c-10.6,1.8-21,2.6-31.3,2.6s-20.7-0.9-31.3-2.6V268.3c0-15.8-2-27.9-5.9-36.4c-4-8.5-12-12.7-24-12.7
		c-5,0-9.9,0.7-14.7,2.2c-4.9,1.4-9.3,4.2-13.2,8.1c-4,3.9-7.2,9.5-9.7,16.7c-2.5,7.1-3.8,16.4-3.8,27.8v122.4
		c-10.6,1.8-21,2.6-31.3,2.6s-20.7-0.9-31.3-2.6V268.3c0-15.8-2-27.9-5.9-36.4s-12-12.7-24-12.7c-5,0-10,0.7-15,2.2
		c-5,1.4-9.5,4.3-13.4,8.6c-4,4.2-7.1,10.1-9.5,17.7c-2.4,7.6-3.5,17.6-3.5,29.8v118.9c-10.6,1.8-21,2.6-31.3,2.6
		s-20.7-0.9-31.3-2.6V169.6H1890.4z M2348.1,401.6c-18.5,0-34.6-3-48.2-9s-25-14.3-33.9-25s-15.7-23.2-20.2-37.5
		c-4.6-14.3-6.9-29.8-6.9-46.5c0-16.6,2.3-32.3,6.9-46.9c4.5-14.6,11.3-27.3,20.2-37.9c9-10.7,20.3-19.1,33.9-25.2
		c13.7-6.1,29.7-9.2,48.2-9.2s34.7,3.1,48.5,9.2c13.8,6.2,25.2,14.5,34.4,25.2c9.1,10.7,15.8,23.3,20.3,37.9
		c4.4,14.6,6.6,30.3,6.6,46.9c0,16.7-2.2,32.2-6.6,46.5c-4.4,14.3-11.2,26.8-20.3,37.5s-20.6,19-34.4,25
		C2382.8,398.6,2366.7,401.6,2348.1,401.6L2348.1,401.6z M2348.1,354.3c16.4,0,28.3-6.1,35.4-18.2c7.2-12.1,10.8-29.6,10.8-52.4
		s-3.6-40.3-10.8-52.4c-7.2-12.1-19-18.2-35.4-18.2c-16.2,0-27.8,6.1-35,18.2c-7.2,12.1-10.8,29.6-10.8,52.4s3.6,40.3,10.8,52.4
		C2320.3,348.2,2332,354.3,2348.1,354.3z M2538.1,297.7c-16.4-4.7-29.3-11.6-38.5-20.8c-9.3-9.2-13.9-23-13.9-41.5
		c0-22.2,8-39.6,24-52.2c16-12.6,37.8-18.9,65.4-18.9c11.5,0,22.8,1.1,33.9,3.1c11.2,2,22.5,5.1,33.9,9.2c-0.6,7.6-2,15.5-4.4,23.7
		c-2.3,8.2-5.1,15.3-8.4,21.5c-7-2.9-14.8-5.5-23.3-7.7s-17.5-3.3-26.9-3.3c-10,0-17.8,1.5-23.4,4.6c-5.6,3.1-8.3,8-8.3,14.7
		c0,6.4,2,10.9,5.9,13.6c3.9,2.6,9.6,5.1,16.9,7.5l25.1,7.5c8.2,2.3,15.6,5.2,22.2,8.6s12.2,7.5,17,12.5c4.7,5,8.3,11.1,11,18.4
		s4,16.3,4,26.8c0,10.8-2.3,20.9-6.8,30.3c-4.5,9.3-11.2,17.5-19.8,24.3c-8.7,6.9-19.1,12.3-31.5,16.2c-12.3,3.9-26.3,5.9-41.9,5.9
		c-7,0-13.5-0.2-19.4-0.7s-11.5-1.2-17-2.2c-5.4-1.1-10.8-2.3-16.1-3.7c-5.3-1.5-11-3.4-17.2-5.7c0.6-7.9,2-15.9,4.2-23.9
		s5.1-15.9,8.6-23.4c9.7,3.8,18.9,6.7,27.5,8.6c8.7,1.9,17.7,2.9,27.1,2.9c4.1,0,8.6-0.4,13.4-1.1c4.9-0.7,9.3-2.1,13.4-4
		c4.1-1.9,7.6-4.4,10.3-7.4c2.8-3.1,4.2-7.1,4.2-12.1c0-7-2.1-12.1-6.4-15.1c-4.3-3.1-10.2-5.8-17.8-8.1L2538.1,297.7z
		 M2690.5,216.9h-28.6l-2.2-8.8l82.4-104.9h10.1v66.2h53.3c0.9,4.4,1.5,8.3,1.8,11.8s0.4,7.2,0.4,11c0,4.1-0.1,8.1-0.4,11.9
		c-0.3,3.8-0.9,8-1.8,12.7h-53.3V306c0,9,0.8,16.4,2.2,21.9c1.5,5.6,3.6,9.9,6.4,13.2c2.8,3.2,6.2,5.4,10.3,6.6s8.9,1.8,14.5,1.8
		c4.4,0,8.7-0.4,13-1.1s8-1.4,11.2-2c2,5.6,3.5,11.3,4.4,17.4c0.9,6,1.3,11.3,1.3,16c0,3.2-0.1,5.9-0.2,8.1
		c-0.1,2.2-0.4,4.3-0.6,6.4c-13.5,3.2-27.5,4.8-41.9,4.8c-26.7,0-47.1-6.2-61.2-18.7c-14.1-12.4-21.2-32.7-21.2-60.8L2690.5,216.9z
		 M614,100.1c12.7-1.8,25-2.6,36.7-2.6c12.4,0,24.7,0.9,36.7,2.6l78.7,162.8l81.1-162.8c9.9-1.8,20.8-2.6,32.9-2.6
		c12.1,0,23.7,0.9,34.8,2.6L931.3,399c-12.1,1.8-23.5,2.7-34.4,2.7c-10.8,0-21.5-0.9-32-2.7l-8.6-216l-69.7,149.3
		c-4.5,0.6-9.1,1.1-13.8,1.5c-4.8,0.5-9.5,0.7-14.3,0.7c-4.2,0-8.3-0.1-12.4-0.4c-4.2-0.3-8.4-0.9-12.9-1.8l-64.9-152.4L661.7,399
		c-10.2,1.8-20.1,2.7-29.6,2.7c-10.2,0-20.7-0.9-31.5-2.7L614,100.1z"/>
</g>
<rect x="0" class="st1" width="2815.5" height="481.6"/>
</svg>
