<?xml version="1.0" encoding="utf-8"?>
<!-- Generator: Adobe Illustrator 27.3.1, SVG Export Plug-In . SVG Version: 6.00 Build 0)  -->
<svg version="1.1" id="Layer_1" xmlns="http://www.w3.org/2000/svg" xmlns:xlink="http://www.w3.org/1999/xlink" x="0px" y="0px"
	 viewBox="0 0 2500 820.7" style="enable-background:new 0 0 2500 820.7;" xml:space="preserve">
<style type="text/css">
	.st0{fill:#FFFFFF;}
</style>
<path class="st0" d="M1389.7,7.6c-9.4,4.7-21.5,14.5-28.2,23.9c-10.2,13.7-11.7,19.6-11.7,40.3s1.6,26.6,11.7,40.3
	c14.9,20.7,29.7,28.2,56.7,28.2c32.9,0,53.6-13.7,66.5-43.8c14.5-35.2-2-72.4-39.9-89.6C1424.5-2.6,1411.2-2.2,1389.7,7.6
	L1389.7,7.6z M170.2,11.1c-41.9,7-77.1,25-107.6,54.8c-23.5,22.7-31.3,35.6-43.4,70C9,164.5,9,219.6,19.2,251.7
	c20.3,64.6,46.6,90,162,159.2c128.7,76.7,142.4,90.4,138.5,138.9c-3.1,39.1-29.3,66.1-74.3,75.1c-24.3,5.1-63.4,0.4-79.8-9.8
	c-4.7-3.1-10.6-5.5-12.5-5.5c-2.3,0-14.9-7.4-28.2-16.4c-35.6-24.6-63.4-57.5-83.7-99.4c-9.4-20-19.2-37.2-21.1-38.7
	c-2.3-1.2-7.8-0.4-12.1,2c-7.8,4.3-7.8,7-7,100.9L2,654.7l10.6,1.2c7.8,0.8,11.7-1.6,17.2-10.6c3.9-6.7,12.9-14.9,19.6-18
	c12.1-5.9,13.7-5.5,46.6,10.2C144,659.8,178,668,224.6,668.4c72,0,133.4-20.7,171-58.3c21.9-22.3,30.1-35.2,41.9-66.9
	c8.6-22.7,9.4-112.3,1.2-133c-13.7-34.8-23.1-50.1-41.1-68.5c-22.3-22.3-24.6-23.9-78.6-57.5c-51.6-32.5-49.3-30.9-91.9-56.3
	c-48.9-29.3-72.4-54-78.6-82.2c-6.7-29.3-0.4-49.3,22.3-70.4c23.1-21.5,52.8-28.6,91.2-21.1c34.4,6.7,68.1,25,88.4,47.7
	c20,22.3,42.6,64.2,47.7,89.2c1.2,5.5,3.9,12.1,6.3,14.5c5.1,6.7,28.6,6.7,31.3,0c1.2-2.7,2.3-43.4,2.3-90.4
	c0.8-60.3-0.4-86.9-3.9-90.8c-6.3-7.4-18.8-7-21.9,1.2c-7.4,21.5-35.6,27.4-66.5,14.5c-8.2-3.5-20-8.6-26.6-11.3
	C279,11.1,214,3.7,170.2,11.1L170.2,11.1z M853.7,19.7c-7.4,7.4-5.9,9.8,10.6,19.2c8.2,4.7,17.2,12.5,19.6,18
	c3.1,6.7,4.3,90.8,4.3,279.3c0,299.3,1.2,287.6-25.4,298.5c-9.4,3.9-13.7,8.6-13.7,14.1c0,7.8,1.2,7.8,102.9,7
	c88-1.2,102.5-2,102.5-7c0-3.1-6.7-9.4-14.9-13.7c-10.6-5.5-15.6-11.7-18.4-21.5c-5.1-18-5.1-271.5,0-289.5
	c5.5-20.7,30.5-43,50.5-45.8c22.7-3.1,36.8,3.9,46.9,23.9c7.8,16.4,8.2,21.5,8.2,162.8c0,129.1-0.8,146.7-6.7,156.5
	c-3.5,6.3-10.6,12.1-15.3,13.3c-11.3,3.1-20,17.2-12.5,20c2.7,1.2,48.5,1.6,100.9,1.2c80.6-1.2,95.9-2,95.9-7c0-2.7-6.7-9-14.9-13.3
	c-10.6-5.5-15.6-11.3-18.4-21.5c-2.3-8.2-3.9-74.3-3.9-154.9c-0.4-154.9-2.7-176.8-22.3-208.5c-7.8-12.9-17.2-21.1-32.5-29.3
	c-20-10.2-24.3-11-56.7-9.8c-42.6,1.6-71.6,13.7-97.8,41.5c-11.7,12.1-18.8,16.8-21.5,14.1c-2.3-2.3-4.3-51.3-4.7-126.8L1015.3,17
	L937,15.8C879.1,15,857.2,16.2,853.7,19.7L853.7,19.7z"/>
<path class="st0" d="M1924.9,20.9c-3.9,4.7-3.9,7,0,11.7c2.7,3.1,7,5.9,9.8,5.9c2.7,0,9.8,5.5,15.3,12.1l10.2,12.1v274.6
	c0,272.3,0,275.4-8.2,285.6c-4.3,5.5-11.3,10.2-15.3,10.2c-9,0-17.2,10.2-14.1,17.6c2,5.1,16.4,5.9,102.1,5.9
	c97.8,0,99.8,0,99.8-8.2c0-5.1-4.3-9.8-13.7-13.3c-7.4-3.1-15.3-9.4-17.6-13.3c-5.1-9.8-5.5-173.7-0.4-171.8
	c3.1,1.2,55.2,76.3,55.2,79.8c0,0.8,10.2,16,23.1,34c12.5,18,23.5,34.4,24.3,36.4s17.2,27,36.4,55.6c18.8,28.2,33.6,54,32.5,56.7
	c-2.3,6.3-32.5,8.2-188.6,14.5c-51.6,2-133.4,5.5-181.9,7.4c-48.5,2.3-150.6,7-226.9,10.2c-76.3,3.5-188.2,8.6-248.4,11.7
	c-60.3,3.5-128.7,5.9-152.6,5.9c-23.5,0-69.2,2-101.7,4.3c-32.1,2-100.9,5.5-152.6,7.4c-124,4.3-264.1,10.6-401,17.6
	c-61.4,3.5-129.9,5.9-152.6,5.9c-22.7,0-62.2,2-88,3.9c-25.8,2.3-97,5.9-158.5,7.8c-132.2,4.3-128.3,4.3-103.7,7.8
	c11,2,553.6,3.5,1206.2,3.5c1072.4,0.4,1186.2,0,1186.2-5.9c0-3.1-5.9-13.7-12.5-23.1c-7-9.8-20.7-29-30.5-43.4
	c-9.8-14.1-27.8-39.9-39.9-57.5c-12.5-17.6-28.2-40.7-35.2-50.9s-23.1-32.9-35.2-50.1c-12.5-16.8-22.7-32.1-22.7-33.3
	c0-1.2-5.1-9-11.3-16.8c-12.1-15.6-36.4-50.1-72-104.1c-12.9-19.6-28.6-41.5-34.8-49.3c-5.9-7.8-11-17.6-11-21.5
	c0-9.4,92.7-100.5,112.7-110.7c9-4.7,20.3-8.2,25.4-8.2c11.3,0,20.3-9.4,16.8-17.6c-3.1-9-169.8-9-172.9,0
	c-3.5,8.6,5.5,17.6,18,17.6c25.4,0,30.5,27.8,10.6,55.6c-14.1,20.3-108.4,120.5-113.1,120.5c-2,0-3.1-89.6-3.1-198.7
	c0-149.5-1.2-199.9-4.7-203.4c-3.1-3.1-26.6-4.7-79.8-4.7C1942.9,15,1928.8,16.2,1924.9,20.9L1924.9,20.9z"/>
<path class="st0" d="M613.1,223.9c-34.8,15.3-36.8,16.8-63.8,43.4c-28.2,27.8-46.6,59.9-59.5,102.5c-11.3,37.6-11.7,107.6-0.8,148.7
	c17.2,64.9,53.2,113.1,103.7,138.1c26.2,12.9,29,13.3,72.4,13.7c34.8,0,49.3-1.6,64.6-7.4c29.7-11,70-39.5,90-63
	c15.6-18,17.6-22.3,13.7-29c-4.7-9.4-17.6-11-22.3-3.1c-6.3,10.2-32.1,26.6-54.4,34.4c-25.4,9-42.6,6.7-75.1-9.4
	c-53.2-26.2-85.3-128.7-74.3-238.7c8.2-84.5,42.6-127.5,89.6-112.3c20,6.7,23.1,14.5,23.1,54.4s10.6,61.4,33.3,69.6
	c39.1,14.1,76.3-12.1,76.3-53.6c0-38.3-21.5-68.9-62.2-88.8c-20-10.2-26.2-11-72.8-12.1C644,210.2,643.2,210.6,613.1,223.9
	L613.1,223.9z M1689,222c-44.2,18.8-82.9,54-107.6,97.4c-19.2,34-33.6,101.3-30.1,138.9c3.1,31.7,11,70.4,17.6,86.9
	c10.2,23.9,17.6,39.1,22.7,44.2c2.3,2.7,4.7,6.7,4.7,8.2c0,9,45.8,48.1,69.2,59.5c25,12.1,29,12.9,71.6,12.9
	c37.9,0.4,48.5-1.2,68.1-8.6c36-14.1,76.7-44.2,96.6-72c6.3-8.6,7-12.5,3.5-18.8c-5.9-11-12.5-9.8-32.1,6.3
	c-36.8,30.9-76.7,37.2-115,18.4c-12.1-5.9-27-17.2-33.3-25c-12.9-16.4-34.8-58.7-34.8-67.7c0-3.1-2.7-16-5.9-28.6
	c-8.6-32.1-7.8-126.8,0.8-160.8c14.5-56.3,51.3-86.5,86.5-70.8c17.6,7.4,20.7,16.4,21.9,57.9c1.2,47.3,8.2,59.9,37.9,66.9
	c24.3,5.9,41.9,0.4,58.3-18c10.2-11.7,11.7-16.4,11.7-37.2c0-39.1-20.3-68.1-62.6-88.8c-19.6-9.8-25.8-10.6-72.4-11.3
	C1718.3,211,1714,211.4,1689,222L1689,222z M1327.1,232.9c0.8,7.8,3.5,11.3,9.8,12.1c5.1,0.8,12.5,5.9,16.8,11.3
	c7.4,9.8,7.8,15.3,7.8,180.4c0,165.5-0.4,170.6-8.2,183.1c-4.3,7.4-11,13.3-14.9,13.3c-8.6,0-16,7.4-16,16.4c0,6.7,6.3,7,97.8,7
	s97.8-0.4,97.8-7c0-9-7.4-16.4-16.4-16.4c-16,0-16.8-9-18.8-213.2l-2-195.6l-77.5-1.2l-77.5-0.8L1327.1,232.9z M2334.9,346.4
	c4.7,0.8,11.7,0.8,15.6,0c3.5-1.2-0.4-2-9-1.6C2332.9,344.8,2329.8,345.6,2334.9,346.4z M2359.2,357c0,3.5,2.7,6.3,6.3,6.3
	c6.7,0,5.5-8.6-1.6-11C2361.1,351.5,2359.2,353.4,2359.2,357L2359.2,357z M2350.2,366c-4.3,3.9-3.1,31.7,1.2,34.4
	c2.3,1.6,3.9-5.1,3.9-17.2C2355.2,362.8,2354.9,361.3,2350.2,366z M2376,386.7c0,11.7,0.8,16.8,1.6,10.6c0.8-5.9,0.8-15.3,0-21.5
	C2376.8,369.9,2376,375,2376,386.7z M2293.8,386.7c0,9.8,0.8,13.7,1.6,8.6c0.8-4.7,0.8-12.5,0-17.6
	C2294.6,373,2293.8,376.9,2293.8,386.7z M2304.4,416c0,3.1,2,5.9,3.9,5.9c2.3,0,3.9-2.7,3.9-5.9c0-3.1-1.6-5.9-3.9-5.9
	C2306.3,410.2,2304.4,412.9,2304.4,416z M2359.2,416.4c0,6.7,8.6,5.5,11-1.6c0.8-2.7-1.2-4.7-4.7-4.7S2359.2,412.9,2359.2,416.4z
	 M2325.9,425.8c-5.9,2.3-3.5,3.5,9.8,3.5c13.3,0,15.6-1.2,9.8-3.5c-4.3-2-8.6-3.5-9.8-3.5C2334.5,422.3,2330.2,423.9,2325.9,425.8z"
	/>
</svg>
