<?xml version="1.0" encoding="utf-8"?>
<!-- Generator: Adobe Illustrator 27.3.1, SVG Export Plug-In . SVG Version: 6.00 Build 0)  -->
<svg version="1.1" id="Layer_1" xmlns="http://www.w3.org/2000/svg" xmlns:xlink="http://www.w3.org/1999/xlink" x="0px" y="0px"
	 viewBox="0 0 498.5 148" style="enable-background:new 0 0 498.5 148;" xml:space="preserve">
<style type="text/css">
	.st0{fill-rule:evenodd;clip-rule:evenodd;fill:#FFFFFF;}
</style>
<g>
	<path class="st0" d="M105.56,94.52c-2.6,1.4-7.1,2.7-9.1-0.4c0-13.7-0.7-27.8-0.1-41.4c0-1.4,0.8-2.4,1.4-3.3
		c2.8-4.5,6.4-8.7,9.6-12.8c0.7-0.9,1.3-1.5,2-2.5c-12.2,2.6-19.7,7.8-26.6,13.9c-0.5,0.5-0.9,1-1.5,1.4c-3.1-1.6-4.9-1.8-8.8-1.8
		c2.6,2.2,4.4,4.1,5.3,7.6c0.8,3.2,0.4,8.8,0.4,12.7v25.9c-1.3,0.4-9.9,9-15.8,3.2c-1.7-1.7-1.4-2.4-1.4-5.5l-0.2-41.5
		c-0.4,0.2-1.7,1.2-3.3,0.4c-2.6-1.2-2.4-5.6-2.4-8c0-2.6,2.3-6.2,3.6-7.6c3.4-3.8,3.2-3.2,5.8-5c-1.8,0.1-7.8,2.6-9.5,3.3
		c-11.2,4.7-28.2,19.5-35.8,33.2c-3.6,6.6-5.3,13.6-4.6,20c3.4-5.6,5.5-9.6,9.7-14.7c3-3.6,9.7-10.8,15-10.8c1.6,0,3.6,1.4,3.6,3
		v35.4c0,4.2-5,3.7-7.4,2.8c1.1,2.1,4.4,5,6.2,6.4c7.8,6.3,18.3,8.8,28,10.1l10.5-11.2c0.6,0.4,9.7,8.1,9.9,8.4
		c10.7-6.1,21.7-19.2,26.3-29.7C114.56,87.12,111.56,91.22,105.56,94.52z M121.36,57.82l0.4-3.8h-2.6l2.2-15.5c-2.4,2-2.9,1.9-7,2.2
		c0,0-0.2,0-0.3,0c-3.2,4.2-6.4,8.8-9.4,13.1l-0.4,3.9h9.9l-0.6,5.6h5.5l0.2-1.2h-1l0.4-4.4C118.56,57.82,121.36,57.82,121.36,57.82
		z M114.56,54.02h-5.1l6.1-9L114.56,54.02z M121.36,57.82l0.4-3.8h-2.6l2.2-15.5c-2.4,2-2.9,1.9-7,2.2c0,0-0.2,0-0.3,0
		c-3.2,4.2-6.4,8.8-9.4,13.1l-0.4,3.9h9.9l-0.6,5.6h5.5l0.2-1.2h-1l0.4-4.4C118.56,57.82,121.36,57.82,121.36,57.82z M114.56,54.02
		h-5.1l6.1-9L114.56,54.02z M96.46,94.12c0-13.7-0.7-27.8-0.1-41.4c0-1.4,0.8-2.4,1.4-3.3c2.8-4.5,6.4-8.7,9.6-12.8
		c0.7-0.9,1.3-1.5,2-2.5c-12.2,2.6-19.7,7.8-26.6,13.9c-0.5,0.5-0.9,1-1.5,1.4c-3.1-1.6-4.9-1.8-8.8-1.8c2.6,2.2,4.4,4.1,5.3,7.6
		c0.8,3.2,0.4,8.8,0.4,12.7v25.9c-1.3,0.4-9.9,9-15.8,3.2c-1.7-1.7-1.4-2.4-1.4-5.5l-0.2-41.5c-0.4,0.2-1.7,1.2-3.3,0.4
		c-2.6-1.2-2.4-5.6-2.4-8c0-2.6,2.3-6.2,3.6-7.6c3.4-3.8,3.2-3.2,5.8-5c-1.8,0.1-7.8,2.6-9.5,3.3c-11.2,4.7-28.2,19.5-35.8,33.2
		c-3.6,6.6-5.3,13.6-4.6,20c3.4-5.6,5.5-9.6,9.7-14.7c3-3.6,9.7-10.8,15-10.8c1.6,0,3.6,1.4,3.6,3v35.4c0,4.2-5,3.7-7.4,2.8
		c1.1,2.1,4.4,5,6.2,6.4c7.8,6.3,18.3,8.8,28,10.1l10.5-11.2c0.6,0.4,9.7,8.1,9.9,8.4c10.7-6.1,21.7-19.2,26.3-29.7
		c-1.7,1.1-4.7,5.3-10.7,8.6C102.96,95.92,98.46,97.12,96.46,94.12z M73.16,0.92c-40.3,0-73,32.7-73,73s32.7,73,73,73
		s72.9-32.7,72.9-72.9S113.46,0.92,73.16,0.92z M73.16,137.32c-35.1,0-63.5-28.4-63.5-63.5c0-35,28.4-63.4,63.5-63.4
		s63.5,28.4,63.5,63.5S108.16,137.32,73.16,137.32z M121.36,57.82l0.4-3.8h-2.6l2.2-15.5c-2.4,2-2.9,1.9-7,2.2c0,0-0.2,0-0.3,0
		c-3.2,4.2-6.4,8.8-9.4,13.1l-0.4,3.9h9.9l-0.6,5.6h5.5l0.2-1.2h-1l0.4-4.4C118.56,57.82,121.36,57.82,121.36,57.82z M114.56,54.02
		h-5.1l6.1-9L114.56,54.02z M96.46,94.12c0-13.7-0.7-27.8-0.1-41.4c0-1.4,0.8-2.4,1.4-3.3c2.8-4.5,6.4-8.7,9.6-12.8
		c0.7-0.9,1.3-1.5,2-2.5c-12.2,2.6-19.7,7.8-26.6,13.9c-0.5,0.5-0.9,1-1.5,1.4c-3.1-1.6-4.9-1.8-8.8-1.8c2.6,2.2,4.4,4.1,5.3,7.6
		c0.8,3.2,0.4,8.8,0.4,12.7v25.9c-1.3,0.4-9.9,9-15.8,3.2c-1.7-1.7-1.4-2.4-1.4-5.5l-0.2-41.5c-0.4,0.2-1.7,1.2-3.3,0.4
		c-2.6-1.2-2.4-5.6-2.4-8c0-2.6,2.3-6.2,3.6-7.6c3.4-3.8,3.2-3.2,5.8-5c-1.8,0.1-7.8,2.6-9.5,3.3c-11.2,4.7-28.2,19.5-35.8,33.2
		c-3.6,6.6-5.3,13.6-4.6,20c3.4-5.6,5.5-9.6,9.7-14.7c3-3.6,9.7-10.8,15-10.8c1.6,0,3.6,1.4,3.6,3v35.4c0,4.2-5,3.7-7.4,2.8
		c1.1,2.1,4.4,5,6.2,6.4c7.8,6.3,18.3,8.8,28,10.1l10.5-11.2c0.6,0.4,9.7,8.1,9.9,8.4c10.7-6.1,21.7-19.2,26.3-29.7
		c-1.7,1.1-4.7,5.3-10.7,8.6C102.96,95.92,98.46,97.12,96.46,94.12z M105.56,94.52c-2.6,1.4-7.1,2.7-9.1-0.4
		c0-13.7-0.7-27.8-0.1-41.4c0-1.4,0.8-2.4,1.4-3.3c2.8-4.5,6.4-8.7,9.6-12.8c0.7-0.9,1.3-1.5,2-2.5c-12.2,2.6-19.7,7.8-26.6,13.9
		c-0.5,0.5-0.9,1-1.5,1.4c-3.1-1.6-4.9-1.8-8.8-1.8c2.6,2.2,4.4,4.1,5.3,7.6c0.8,3.2,0.4,8.8,0.4,12.7v25.9c-1.3,0.4-9.9,9-15.8,3.2
		c-1.7-1.7-1.4-2.4-1.4-5.5l-0.2-41.5c-0.4,0.2-1.7,1.2-3.3,0.4c-2.6-1.2-2.4-5.6-2.4-8c0-2.6,2.3-6.2,3.6-7.6
		c3.4-3.8,3.2-3.2,5.8-5c-1.8,0.1-7.8,2.6-9.5,3.3c-11.2,4.7-28.2,19.5-35.8,33.2c-3.6,6.6-5.3,13.6-4.6,20
		c3.4-5.6,5.5-9.6,9.7-14.7c3-3.6,9.7-10.8,15-10.8c1.6,0,3.6,1.4,3.6,3v35.4c0,4.2-5,3.7-7.4,2.8c1.1,2.1,4.4,5,6.2,6.4
		c7.8,6.3,18.3,8.8,28,10.1l10.5-11.2c0.6,0.4,9.7,8.1,9.9,8.4c10.7-6.1,21.7-19.2,26.3-29.7
		C114.56,87.12,111.56,91.22,105.56,94.52z M121.36,57.82l0.4-3.8h-2.6l2.2-15.5c-2.4,2-2.9,1.9-7,2.2c0,0-0.2,0-0.3,0
		c-3.2,4.2-6.4,8.8-9.4,13.1l-0.4,3.9h9.9l-0.6,5.6h5.5l0.2-1.2h-1l0.4-4.4C118.56,57.82,121.36,57.82,121.36,57.82z M114.56,54.02
		h-5.1l6.1-9L114.56,54.02z M105.56,94.52c-2.6,1.4-7.1,2.7-9.1-0.4c0-13.7-0.7-27.8-0.1-41.4c0-1.4,0.8-2.4,1.4-3.3
		c2.8-4.5,6.4-8.7,9.6-12.8c0.7-0.9,1.3-1.5,2-2.5c-12.2,2.6-19.7,7.8-26.6,13.9c-0.5,0.5-0.9,1-1.5,1.4c-3.1-1.6-4.9-1.8-8.8-1.8
		c2.6,2.2,4.4,4.1,5.3,7.6c0.8,3.2,0.4,8.8,0.4,12.7v25.9c-1.3,0.4-9.9,9-15.8,3.2c-1.7-1.7-1.4-2.4-1.4-5.5l-0.2-41.5
		c-0.4,0.2-1.7,1.2-3.3,0.4c-2.6-1.2-2.4-5.6-2.4-8c0-2.6,2.3-6.2,3.6-7.6c3.4-3.8,3.2-3.2,5.8-5c-1.8,0.1-7.8,2.6-9.5,3.3
		c-11.2,4.7-28.2,19.5-35.8,33.2c-3.6,6.6-5.3,13.6-4.6,20c3.4-5.6,5.5-9.6,9.7-14.7c3-3.6,9.7-10.8,15-10.8c1.6,0,3.6,1.4,3.6,3
		v35.4c0,4.2-5,3.7-7.4,2.8c1.1,2.1,4.4,5,6.2,6.4c7.8,6.3,18.3,8.8,28,10.1l10.5-11.2c0.6,0.4,9.7,8.1,9.9,8.4
		c10.7-6.1,21.7-19.2,26.3-29.7C114.56,87.12,111.56,91.22,105.56,94.52z M121.36,57.82l0.4-3.8h-2.6l2.2-15.5c-2.4,2-2.9,1.9-7,2.2
		c0,0-0.2,0-0.3,0c-3.2,4.2-6.4,8.8-9.4,13.1l-0.4,3.9h9.9l-0.6,5.6h5.5l0.2-1.2h-1l0.4-4.4C118.56,57.82,121.36,57.82,121.36,57.82
		z M114.56,54.02h-5.1l6.1-9L114.56,54.02z"/>
	<g>
		<polygon class="st0" points="496.86,90.02 459.66,90.02 459.66,51.42 471.26,51.42 471.26,81.02 496.86,81.02 		"/>
		<path class="st0" d="M211.76,90.32c-9.1-0.1-23.5,0.7-23.5-11.8v-27.1h11.6v22.2c0,5.3,1,7.8,8.2,7.8h7.9c7.2,0,8.2-2.4,8.2-7.8
			v-22.2h11.6v27.1c0,12.6-14.3,11.8-23.5,11.8H211.76z"/>
		<polygon class="st0" points="294.36,90.02 277.06,90.02 254.76,61.32 254.76,90.02 243.46,90.02 243.46,51.42 261.06,51.42 
			283.06,79.82 283.06,51.42 294.36,51.42 		"/>
		<path class="st0" d="M340.66,74.72c3.2-0.7,7.4-1.5,7.4-9.9c0.1-10.9-2.7-13.4-15.8-13.4h-30.2v38.6h11.6v-10.7h13.7
			c8.1,0,9.2,2.2,9.2,6.9v3.7h11.4v-6.7C347.96,78.22,347.56,75.32,340.66,74.72z M336.26,66.82c0,2.4-1,3.9-6,3.9h-16.6v-10.6h16.4
			c5.3,0,6.3,1.4,6.3,4.8L336.26,66.82L336.26,66.82z"/>
		<polygon class="st0" points="355.16,90.02 355.16,51.42 396.76,51.42 396.76,60.12 366.56,60.12 366.56,66.42 395.16,66.42 
			395.16,74.72 366.56,74.72 366.56,81.12 397.36,81.12 397.36,90.02 		"/>
		<path class="st0" d="M434.66,51.42c-4.8-0.1-9.6-0.1-14.3,0l-20.7,38.6h12.5l3.6-7h23.5l3.5,7h12.5L434.66,51.42z M420.06,74.72
			l7.5-14.6l7.5,14.6H420.06z"/>
		<polygon class="st0" points="400.16,124.92 400.16,102.32 424.56,102.32 424.56,107.42 406.86,107.42 406.86,111.12 
			423.56,111.12 423.56,115.92 406.86,115.92 406.86,119.62 424.96,119.62 424.96,124.92 		"/>
		<polygon class="st0" points="260.26,124.92 260.26,102.32 284.56,102.32 284.56,107.42 266.86,107.42 266.86,111.12 
			283.56,111.12 283.56,115.92 266.86,115.92 266.86,119.62 284.96,119.62 284.96,124.92 		"/>
		<polygon class="st0" points="318.26,124.92 308.16,124.92 295.06,108.12 295.06,124.92 288.46,124.92 288.46,102.32 
			298.76,102.32 311.66,118.92 311.66,102.32 318.26,102.32 		"/>
		<path class="st0" d="M331.96,101.92h9.7c8.5,0,9,3.9,9,8h-6.6v-0.1c0-1.5-0.9-2.6-3.3-2.6h-7.4c-2.9,0-4.3,1.6-4.3,3.6v4.9
			c0,2.7,1.1,4,6.6,4h5.1c2.4,0,3.7-1.1,3.7-3.5h-8.7v-4.3h15.3c0,9.2,0.7,13-11,13h-5.1c-6.8,0-12.6,0.1-12.6-8.6v-6
			c0-2.4,0.7-4.9,1.8-6.1C325.46,102.82,328.26,101.92,331.96,101.92L331.96,101.92z"/>
		<rect x="354.66" y="102.32" class="st0" width="7" height="22.6"/>
		<polygon class="st0" points="395.76,124.92 385.66,124.92 372.56,108.12 372.56,124.92 365.96,124.92 365.96,102.32 
			376.26,102.32 389.06,118.92 389.06,102.32 395.66,102.32 		"/>
	</g>
</g>
</svg>
