<?xml version="1.0" encoding="utf-8"?>
<!-- Generator: Adobe Illustrator 27.3.1, SVG Export Plug-In . SVG Version: 6.00 Build 0)  -->
<svg version="1.1" id="Layer_1" xmlns="http://www.w3.org/2000/svg" xmlns:xlink="http://www.w3.org/1999/xlink" x="0px" y="0px"
	 viewBox="0 0 923.1 369.3" style="enable-background:new 0 0 923.1 369.3;" xml:space="preserve">
<style type="text/css">
	.st0{fill:#FFFFFF;}
</style>
<g>
	<path class="st0" d="M472.3,0c33-1.1,66.2,3.8,97.4,14.9c46.8,16.4,88.7,46.6,119.3,85.6c13.5,17.1,24.8,35.9,33.6,55.9
		c1.6,3.3,2.8,7,1.9,10.7c-1,6.2-6.5,11.3-12.7,11.9c-6.5,0.9-13.2-3.1-15.5-9.2c-17.6-41.4-47.6-77.3-85.1-102.2
		c-23.1-15.5-49.1-26.7-76.2-33c-35-8.2-71.8-8.2-106.8,0c-50,11.5-95.7,40.2-127.9,80c-13.7,16.8-25,35.5-33.5,55.4
		c-1.8,4.6-6.1,8.2-11,9.1c-4.8,0.9-9.9-0.7-13.3-4.3c-3.9-3.9-5.2-10.2-3.2-15.3c23.4-55.4,66.8-101.9,120.2-129.6
		C394.2,11.5,433.1,1.3,472.3,0"/>
	<path class="st0" d="M428.6,170.6c-0.2-2.9,2.5-5,5.2-5.1c3.5-0.1,7-0.1,10.5,0c2.4,0.1,5.3,1.7,5.3,4.5
		c0.1,32.2-0.1,64.4,0.1,96.6c13-14.5,26.2-28.9,39.3-43.4c2.6-2.5,4.6-6.4,8.6-6.7c5.4-0.2,10.8-0.1,16.2-0.1
		c2.1-0.2,4.4,1.7,3.7,3.9c-0.9,1.7-2.4,2.9-3.7,4.3c-14.2,14.1-28.4,28.2-42.4,42.4c13.6,15.5,27,31.2,40.6,46.8
		c1.7,2.2,3.9,4.1,5.4,6.5c1.1,1.9-0.7,4.2-2.8,4.3c-4.5,0.3-9,0-13.5,0.1c-2.3-0.1-4.9,0.3-7-0.9c-2.2-1.3-3.6-3.6-5.2-5.5
		c-13.1-16.4-26-33-39.1-49.4c-0.1,16.2,0,32.4-0.1,48.6c0,1.9,0.3,4.1-1.3,5.5c-2.6,2.5-6.4,1.6-9.7,1.8c-2.9-0.1-6.2,0.5-8.6-1.6
		c-1.3-1-1.6-2.7-1.6-4.3C428.7,269.4,428.6,220,428.6,170.6 M369.1,216c6.5-2.1,13.9-2.5,20.3,0.3c2.2,1.1,4.9,3.3,3.8,6.1
		c-1,3.5-1.9,7-3.1,10.4c-0.9,2.5-3.8,3.4-6.2,2.9c-5.4-0.9-10.7-2.7-16.2-2.5c-3.9-0.1-7.4,2-10.1,4.7c-4.3,4.2-6.5,10-7.5,15.8
		c-0.8,4.2-0.6,8.5-0.6,12.7c0,17.8,0,35.5,0,53.3c0.3,2.9-2.8,4.9-5.4,5c-3.6,0.1-7.2,0.1-10.8,0c-2.6-0.1-5.6-2-5.2-5
		c0-32.9,0-65.8,0-98.6c-0.2-3.3,3.4-5,6.2-4.7c3.6,0.2,8.4-1.1,10.8,2.5c1.8,4.2,2.6,8.7,4.2,12.9C354.4,224.7,361,218.7,369.1,216
		 M0,218.5c1-1.2,2.2-2.4,3.9-2.3c4.9,0,9.8-0.2,14.7,0.1c2.5,0.1,4.2,2.3,4.6,4.6c4.8,19.6,9.6,39.3,14.4,58.9
		c1.4,6.1,3.1,12.1,4,18.2c0.9,5.5,1.1,11.2,2,16.7c1.2-7.9,2.4-15.9,4.5-23.6c6.3-23.4,12.6-46.9,18.9-70.3c0.5-2.7,3-4.6,5.7-4.6
		c5.5-0.1,10.9,0,16.4,0c2.9-0.1,6.1,1.6,6.8,4.6c4.7,17.1,9.3,34.2,14,51.3c2.8,11.1,6.6,22,8.2,33.3c0.4,3.1,0.9,6.3,1.5,9.4
		c1.8-17.9,6.4-35.2,10.1-52.7c3.1-13.9,6.2-27.8,9.3-41.7c0.5-2.8,3.4-4.2,6-4.1c4.4,0,8.8-0.2,13.3,0.1c2.6,0.1,4.1,3,3.2,5.3
		c-8.9,32.7-17.7,65.5-26.6,98.2c-0.5,2.6-2.8,4.7-5.4,4.7c-6.9,0.2-13.7,0.1-20.6,0.1c-2.5,0.2-5.1-1.2-5.5-3.7
		c-6.1-22.5-12.1-45.1-18.2-67.6c-2.2-7.8-3.1-16-4-24c-1.1,7.2-1.7,14.5-3.6,21.5c-6.2,23.2-12.5,46.4-18.7,69.6
		c-0.7,3.8-5,4.5-8.2,4.3c-6.4-0.1-12.7,0.1-19.1-0.1c-2.3,0-4-1.8-4.4-3.9c-8.9-32.6-17.9-65.2-26.8-97.8C0,221.4,0.1,220,0,218.5
		 M803.5,216.3c4.7-0.1,9.3-0.1,14,0c2.8,0,5.5,2,6.4,4.7c8,21,16,42,24,63c1.7,4.3,2.8,8.7,3.6,13.2c3.3-12.5,7.7-24.6,11.6-36.9
		c4.3-13.3,8.6-26.6,13-39.9c0.6-2.3,2.8-3.9,5.2-4.1c3.8-0.3,7.6,0,11.4-0.1c2.2,0,4.9-0.2,6.6,1.6c1.1,0.9,0.9,2.5,0.4,3.7
		c-12.8,36.6-25.6,73.3-38.5,109.9c-2.2,6.1-3.9,12.5-7.5,18c-5.1,8.4-13.5,14.4-22.7,17.6c-3.2,1-6.5,3.2-10,2
		c-2.4-0.6-3.4-3.2-4.7-5c-0.9-1.7-2.7-3.3-2.3-5.4c0.2-2.1,1.8-3.8,3.8-4.4c3.9-1.3,7.8-2.8,10.9-5.5c7.6-6.4,12.3-16,14.1-25.6
		c-1.2-4.3-3.5-8.3-5.1-12.4c-12.2-28.4-24.5-56.9-36.8-85.3c-0.7-1.9-1.8-3.6-2-5.7C799.1,217.4,801.6,216.4,803.5,216.3
		 M232.7,230.1c-6.7,1.2-12.8,5.4-16.2,11.3c-5.7,9.6-6.3,21.2-6.1,32.1c0.4,9.9,2,20.4,8.3,28.3c4.7,6,12.4,9,19.9,8.9
		c7.2,0.2,14.8-2.2,19.6-7.7c6.2-6.8,8.2-16.3,9.1-25.2c0.4-8.8,0.6-17.7-1.7-26.3c-1.8-7.2-5.6-14.5-12.2-18.4
		C247.3,229.4,239.7,229,232.7,230.1L232.7,230.1z M235.5,214.5c12.1-0.7,24.7,1.8,34.7,8.9c8.9,6.3,15,16.1,17.8,26.6
		c3.4,12.5,3.3,25.9,0.3,38.5c-2.9,11.6-9.6,22.5-19.7,29.1c-10.8,7.2-24.4,9.1-37.2,7.5c-10.8-1.3-21.4-6.1-28.9-14.1
		c-8.9-9.3-13.3-22.1-14.2-34.7c-1.1-14,1-28.9,8.8-40.9c5.8-9,14.9-15.6,25.2-18.7C226.6,215.5,231.1,214.8,235.5,214.5 M592,229.5
		c-6.6,0.4-13,4.2-16,10.3c-5.8,11.2-5.9,24.2-5.6,36.5c0.5,8,1.3,16.3,5.1,23.6c2.5,4.9,7.1,8.7,12.6,9.9c8.3,2,18.1,0.3,24-6.3
		c5.7-6.5,7.6-15.3,8.4-23.7c0.6-9.5,0.6-19.2-1.7-28.5c-1.6-6.2-4.4-12.4-9.3-16.8C604.7,230.4,598.1,228.8,592,229.5L592,229.5z
		 M620.5,169.2c-0.2-2.5,2.4-4.1,4.7-4.3c3.6-0.2,7.2-0.1,10.8-0.1c2.7,0,5.8,2,5.4,5.1c0,49.7,0,99.3,0,149
		c0.2,2.6-2.3,4.6-4.7,4.7c-2.9,0.2-5.7,0.2-8.6,0c-2-0.1-4-1.4-4.6-3.3c-1.1-3.2-1.6-6.6-2.5-9.9c-4,5.4-9.1,10.1-15.4,12.5
		c-9.1,3.3-19.1,3.4-28.5,1.1c-9.4-2.2-17.5-8.7-22-17.1c-7.1-12.9-7.9-28.1-7.5-42.5c0.3-12.3,2.6-25.3,10.6-35.1
		c6.1-8.3,16-13,26-14.3c9.3-1.4,19.4,0.2,27.1,5.9c3.6,2.6,6.6,6,9.2,9.6C620.4,210,620.4,189.6,620.5,169.2 M720.8,230.1
		c-3.3,0.7-6.5,2-9.2,4.1c-5.4,4.2-8,10.8-9.5,17.3c-2.1,10.2-2,20.8-1,31.2c1,7.6,2.9,15.7,8.5,21.4c4.5,4.8,11.4,6.5,17.8,6.2
		c6.9,0.2,14.1-2.3,18.5-7.7c5.6-6.7,7.1-15.7,7.9-24.1c0.5-9.9,0.5-20.1-2.3-29.7c-1.8-6-5-12-10.4-15.4
		C735.2,229.4,727.6,229.1,720.8,230.1L720.8,230.1z M711.5,216.5c9.6-2.7,19.8-2.8,29.5-0.6c9,2.1,17.4,7.1,22.9,14.6
		c5.8,7.7,8.8,17.1,10,26.6c1.1,7.3,0.8,14.7,0.8,22c0,13.3,0,26.5,0,39.8c0.1,1.6-0.9,3-2.2,3.9c-2.2,1.4-5,0.8-7.5,0.9
		c-2.8,0-6.4,0.2-8-2.7c-1.5-3.4-1.8-7.2-2.7-10.8c-3.7,4.5-7.6,9.2-13,11.8c-8.2,4.1-17.8,3.8-26.7,2.1
		c-10.8-2.1-20.7-8.5-26.8-17.7c-7.3-10.7-9.9-23.9-9.8-36.6c-0.1-12.4,2.3-25.3,9.3-35.8C692.8,225.5,701.7,219.2,711.5,216.5
		 M904.2,298c-5.5,2-8.9,8.3-7.5,14c1.4,6.7,9.2,11.3,15.7,8.8c6-1.8,9.8-8.7,7.9-14.7C918.7,299.3,910.6,295.3,904.2,298L904.2,298
		z M905,295.1c3.2-0.5,6.8-0.5,9.8,1c5.1,2.3,8.8,7.8,8.3,13.6c0.4,6.8-5.3,12.9-11.9,14c-7.4,1.6-15.3-3.8-16.8-11.1
		C892.4,305.1,897.5,296.8,905,295.1"/>
	<path class="st0" d="M906.5,303.4c0,1.6,0,3.1,0,4.7c1.4-0.1,2.8,0,4.1-0.4c1.3-0.5,1.1-2.1,0.8-3.2
		C910.1,303.2,908.2,303.6,906.5,303.4z M902.4,300.9c3.9,0.2,8.3-0.9,11.9,1.3c2.8,2.1,1.5,6.8-1.7,7.8c0.9,2.5,2.2,4.7,3.4,7.1
		c-1.5,0-2.9,0.1-4.4,0.1c-1.1-2.2-2.1-4.3-3.1-6.5c-0.6,0-1.3,0-1.9,0c0,2.2,0,4.4,0,6.5c-1.4,0-2.7,0-4.1,0
		C902.4,311.7,902.4,306.3,902.4,300.9"/>
</g>
</svg>
